<mxfile host="app.diagrams.net" agent="Mozilla/5.0 (Windows NT 10.0; Win64; x64) AppleWebKit/537.36 (KHTML, like Gecko) Chrome/131.0.0.0 Safari/537.36" version="25.0.1">
  <diagram name="Strona-1" id="xuwnQsPe4J0_OlcqmmFR">
    <mxGraphModel dx="1434" dy="746" grid="1" gridSize="10" guides="1" tooltips="1" connect="1" arrows="1" fold="1" page="1" pageScale="1" pageWidth="827" pageHeight="1169" math="0" shadow="0">
      <root>
        <mxCell id="0" />
        <mxCell id="1" parent="0" />
        <mxCell id="by8P_SbaVHbA1wZob9lZ-1" value="Book" style="swimlane;fontStyle=1;align=center;verticalAlign=top;childLayout=stackLayout;horizontal=1;startSize=26;horizontalStack=0;resizeParent=1;resizeParentMax=0;resizeLast=0;collapsible=1;marginBottom=0;whiteSpace=wrap;html=1;" parent="1" vertex="1">
          <mxGeometry x="310" y="49" width="170" height="160" as="geometry" />
        </mxCell>
        <mxCell id="by8P_SbaVHbA1wZob9lZ-2" value="- string: title&lt;div&gt;- string : author&lt;/div&gt;" style="text;strokeColor=none;fillColor=none;align=left;verticalAlign=top;spacingLeft=4;spacingRight=4;overflow=hidden;rotatable=0;points=[[0,0.5],[1,0.5]];portConstraint=eastwest;whiteSpace=wrap;html=1;" parent="by8P_SbaVHbA1wZob9lZ-1" vertex="1">
          <mxGeometry y="26" width="170" height="44" as="geometry" />
        </mxCell>
        <mxCell id="by8P_SbaVHbA1wZob9lZ-3" value="" style="line;strokeWidth=1;fillColor=none;align=left;verticalAlign=middle;spacingTop=-1;spacingLeft=3;spacingRight=3;rotatable=0;labelPosition=right;points=[];portConstraint=eastwest;strokeColor=inherit;" parent="by8P_SbaVHbA1wZob9lZ-1" vertex="1">
          <mxGeometry y="70" width="170" height="20" as="geometry" />
        </mxCell>
        <mxCell id="by8P_SbaVHbA1wZob9lZ-4" value="+Book(title,string)&lt;div&gt;+display()&lt;br&gt;&lt;div&gt;+showAuthor()&lt;/div&gt;&lt;div&gt;+openBook()&lt;/div&gt;&lt;/div&gt;" style="text;strokeColor=none;fillColor=none;align=left;verticalAlign=top;spacingLeft=4;spacingRight=4;overflow=hidden;rotatable=0;points=[[0,0.5],[1,0.5]];portConstraint=eastwest;whiteSpace=wrap;html=1;" parent="by8P_SbaVHbA1wZob9lZ-1" vertex="1">
          <mxGeometry y="90" width="170" height="70" as="geometry" />
        </mxCell>
        <mxCell id="by8P_SbaVHbA1wZob9lZ-5" value="E-Book" style="swimlane;fontStyle=1;align=center;verticalAlign=top;childLayout=stackLayout;horizontal=1;startSize=26;horizontalStack=0;resizeParent=1;resizeParentMax=0;resizeLast=0;collapsible=1;marginBottom=0;whiteSpace=wrap;html=1;" parent="1" vertex="1">
          <mxGeometry x="20" y="50" width="170" height="150" as="geometry" />
        </mxCell>
        <mxCell id="by8P_SbaVHbA1wZob9lZ-6" value="- string: title&lt;div&gt;- string: author&lt;/div&gt;" style="text;strokeColor=none;fillColor=none;align=left;verticalAlign=top;spacingLeft=4;spacingRight=4;overflow=hidden;rotatable=0;points=[[0,0.5],[1,0.5]];portConstraint=eastwest;whiteSpace=wrap;html=1;" parent="by8P_SbaVHbA1wZob9lZ-5" vertex="1">
          <mxGeometry y="26" width="170" height="44" as="geometry" />
        </mxCell>
        <mxCell id="by8P_SbaVHbA1wZob9lZ-7" value="" style="line;strokeWidth=1;fillColor=none;align=left;verticalAlign=middle;spacingTop=-1;spacingLeft=3;spacingRight=3;rotatable=0;labelPosition=right;points=[];portConstraint=eastwest;strokeColor=inherit;" parent="by8P_SbaVHbA1wZob9lZ-5" vertex="1">
          <mxGeometry y="70" width="170" height="8" as="geometry" />
        </mxCell>
        <mxCell id="by8P_SbaVHbA1wZob9lZ-8" value="+Book(title,string)&lt;div&gt;+showAuthor()&lt;/div&gt;&lt;div&gt;+openBook()&lt;/div&gt;" style="text;strokeColor=none;fillColor=none;align=left;verticalAlign=top;spacingLeft=4;spacingRight=4;overflow=hidden;rotatable=0;points=[[0,0.5],[1,0.5]];portConstraint=eastwest;whiteSpace=wrap;html=1;" parent="by8P_SbaVHbA1wZob9lZ-5" vertex="1">
          <mxGeometry y="78" width="170" height="72" as="geometry" />
        </mxCell>
        <mxCell id="by8P_SbaVHbA1wZob9lZ-9" value="Audiobook" style="swimlane;fontStyle=1;align=center;verticalAlign=top;childLayout=stackLayout;horizontal=1;startSize=26;horizontalStack=0;resizeParent=1;resizeParentMax=0;resizeLast=0;collapsible=1;marginBottom=0;whiteSpace=wrap;html=1;" parent="1" vertex="1">
          <mxGeometry x="640" y="49" width="170" height="152" as="geometry" />
        </mxCell>
        <mxCell id="by8P_SbaVHbA1wZob9lZ-10" value="- string: title&lt;div&gt;- string: author&lt;/div&gt;" style="text;strokeColor=none;fillColor=none;align=left;verticalAlign=top;spacingLeft=4;spacingRight=4;overflow=hidden;rotatable=0;points=[[0,0.5],[1,0.5]];portConstraint=eastwest;whiteSpace=wrap;html=1;" parent="by8P_SbaVHbA1wZob9lZ-9" vertex="1">
          <mxGeometry y="26" width="170" height="34" as="geometry" />
        </mxCell>
        <mxCell id="by8P_SbaVHbA1wZob9lZ-11" value="" style="line;strokeWidth=1;fillColor=none;align=left;verticalAlign=middle;spacingTop=-1;spacingLeft=3;spacingRight=3;rotatable=0;labelPosition=right;points=[];portConstraint=eastwest;strokeColor=inherit;" parent="by8P_SbaVHbA1wZob9lZ-9" vertex="1">
          <mxGeometry y="60" width="170" height="30" as="geometry" />
        </mxCell>
        <mxCell id="by8P_SbaVHbA1wZob9lZ-12" value="+Book(title,string)&lt;div&gt;+showAuthor()&lt;/div&gt;&lt;div&gt;+openBook()&lt;/div&gt;" style="text;strokeColor=none;fillColor=none;align=left;verticalAlign=top;spacingLeft=4;spacingRight=4;overflow=hidden;rotatable=0;points=[[0,0.5],[1,0.5]];portConstraint=eastwest;whiteSpace=wrap;html=1;" parent="by8P_SbaVHbA1wZob9lZ-9" vertex="1">
          <mxGeometry y="90" width="170" height="62" as="geometry" />
        </mxCell>
        <mxCell id="by8P_SbaVHbA1wZob9lZ-13" value="Library" style="swimlane;fontStyle=1;align=center;verticalAlign=top;childLayout=stackLayout;horizontal=1;startSize=26;horizontalStack=0;resizeParent=1;resizeParentMax=0;resizeLast=0;collapsible=1;marginBottom=0;whiteSpace=wrap;html=1;" parent="1" vertex="1">
          <mxGeometry x="310" y="350" width="160" height="140" as="geometry" />
        </mxCell>
        <mxCell id="by8P_SbaVHbA1wZob9lZ-14" value="-books [] Book" style="text;strokeColor=none;fillColor=none;align=left;verticalAlign=top;spacingLeft=4;spacingRight=4;overflow=hidden;rotatable=0;points=[[0,0.5],[1,0.5]];portConstraint=eastwest;whiteSpace=wrap;html=1;" parent="by8P_SbaVHbA1wZob9lZ-13" vertex="1">
          <mxGeometry y="26" width="160" height="54" as="geometry" />
        </mxCell>
        <mxCell id="by8P_SbaVHbA1wZob9lZ-15" value="" style="line;strokeWidth=1;fillColor=none;align=left;verticalAlign=middle;spacingTop=-1;spacingLeft=3;spacingRight=3;rotatable=0;labelPosition=right;points=[];portConstraint=eastwest;strokeColor=inherit;" parent="by8P_SbaVHbA1wZob9lZ-13" vertex="1">
          <mxGeometry y="80" width="160" height="8" as="geometry" />
        </mxCell>
        <mxCell id="by8P_SbaVHbA1wZob9lZ-16" value="+ Library(string,string,int&lt;div&gt;+ borrowBook();&lt;/div&gt;&lt;div&gt;+ returnBook()&lt;/div&gt;" style="text;strokeColor=none;fillColor=none;align=left;verticalAlign=top;spacingLeft=4;spacingRight=4;overflow=hidden;rotatable=0;points=[[0,0.5],[1,0.5]];portConstraint=eastwest;whiteSpace=wrap;html=1;" parent="by8P_SbaVHbA1wZob9lZ-13" vertex="1">
          <mxGeometry y="88" width="160" height="52" as="geometry" />
        </mxCell>
        <mxCell id="zdzB7d6HNm0lW8P5vH9x-10" value="" style="endArrow=open;html=1;endSize=12;startArrow=diamondThin;startSize=14;startFill=0;edgeStyle=orthogonalEdgeStyle;align=left;verticalAlign=bottom;rounded=0;exitX=0.419;exitY=0;exitDx=0;exitDy=0;exitPerimeter=0;" edge="1" parent="1">
          <mxGeometry x="-1" y="3" relative="1" as="geometry">
            <mxPoint x="389.53999999999996" y="350" as="sourcePoint" />
            <mxPoint x="389.5" y="210" as="targetPoint" />
          </mxGeometry>
        </mxCell>
        <mxCell id="zdzB7d6HNm0lW8P5vH9x-11" value="Extends" style="endArrow=block;endSize=16;endFill=0;html=1;rounded=0;exitX=1.012;exitY=0.014;exitDx=0;exitDy=0;exitPerimeter=0;" edge="1" parent="1" source="by8P_SbaVHbA1wZob9lZ-8">
          <mxGeometry width="160" relative="1" as="geometry">
            <mxPoint x="200" y="130" as="sourcePoint" />
            <mxPoint x="310" y="129.5" as="targetPoint" />
          </mxGeometry>
        </mxCell>
        <mxCell id="zdzB7d6HNm0lW8P5vH9x-12" value="Extends" style="endArrow=block;endSize=16;endFill=0;html=1;rounded=0;entryX=1;entryY=0.5;entryDx=0;entryDy=0;" edge="1" parent="1" target="by8P_SbaVHbA1wZob9lZ-1">
          <mxGeometry width="160" relative="1" as="geometry">
            <mxPoint x="640" y="125" as="sourcePoint" />
            <mxPoint x="510" y="125" as="targetPoint" />
            <Array as="points">
              <mxPoint x="600" y="125" />
            </Array>
          </mxGeometry>
        </mxCell>
      </root>
    </mxGraphModel>
  </diagram>
</mxfile>
